<svg width="130" height="50" viewBox="0 0 130 50" fill="none" xmlns="http://www.w3.org/2000/svg">
<path d="M22 28.8656C24.1574 28.8656 25.9062 27.1167 25.9062 24.9594C25.9062 22.802 24.1574 21.0531 22 21.0531C19.8426 21.0531 18.0938 22.802 18.0938 24.9594C18.0938 27.1167 19.8426 28.8656 22 28.8656Z" fill="#00D8FF"></path>
<path d="M22 33.9156C17.3049 34.0292 12.6216 33.3963 8.125 32.0406C6.0478 31.3822 4.1105 30.3449 2.4109 28.9812C1.7624 28.5154 1.2223 27.9147 0.8277 27.2205C0.4331 26.5263 0.1934 25.7549 0.125 24.9594C0.125 22.3766 2.9625 19.8453 7.7156 18.1891C12.3324 16.7215 17.1561 16.0102 22 16.0828C26.7792 16.016 31.5383 16.7144 36.0969 18.1516C38.0973 18.7893 39.969 19.7764 41.625 21.0672C42.2625 21.5113 42.7945 22.0902 43.1833 22.7628C43.5721 23.4354 43.8083 24.1853 43.875 24.9594C43.875 27.6437 40.7031 30.3641 35.5938 32.0547C31.1843 33.3662 26.5997 33.9938 22 33.9156ZM22 17.9516C17.3658 17.8896 12.7513 18.5658 8.3297 19.9547C3.9547 21.4812 1.9938 23.5687 1.9938 24.9547C1.9938 26.4047 4.1016 28.6844 8.7297 30.2672C13.0314 31.5576 17.5103 32.1583 22 32.0469C26.4006 32.1256 30.7874 31.5301 35.0078 30.2812C39.8125 28.6891 42 26.4062 42 24.9594C41.9212 24.4628 41.7402 23.9881 41.4686 23.565C41.197 23.142 40.8406 22.7799 40.4219 22.5016C38.9402 21.3565 37.2683 20.4816 35.4828 19.9172C31.1219 18.548 26.5703 17.8845 22 17.9516Z" fill="#00D8FF"></path>
<path d="M13.1249 44.4422C12.396 44.4589 11.6757 44.2821 11.0374 43.9297C8.7999 42.6391 8.0249 38.9172 8.9639 33.9719C9.9993 29.2392 11.7933 24.7051 14.2764 20.5453C16.6057 16.372 19.5877 12.5983 23.1093 9.36717C24.6611 7.95267 26.4512 6.82427 28.3968 6.03437C29.1004 5.70457 29.8681 5.53357 30.6452 5.53357C31.4223 5.53357 32.1899 5.70457 32.8936 6.03437C35.2202 7.37497 35.9905 11.4812 34.9046 16.7516C33.8372 21.2274 32.0898 25.5132 29.7233 29.4594C27.476 33.5834 24.588 37.3242 21.1671 40.5422C19.5589 42.0122 17.6926 43.1718 15.6624 43.9625C14.8496 44.2642 13.9917 44.4263 13.1249 44.4422ZM15.8952 21.4734C13.5266 25.4568 11.8072 29.7917 10.8014 34.3156C9.9374 38.8703 10.7671 41.6094 11.9733 42.3062C13.2233 43.0297 16.2577 42.3437 19.9421 39.125C23.2077 36.0421 25.9643 32.4612 28.1093 28.5156C30.3763 24.743 32.0525 20.6455 33.0796 16.3656C34.1014 11.4047 33.2186 8.36717 31.9655 7.64527C31.4958 7.46527 30.9939 7.38477 30.4915 7.40867C29.9891 7.43267 29.4972 7.56057 29.0468 7.78437C27.315 8.49897 25.7229 9.51347 24.3436 10.7812C20.9791 13.8762 18.1306 17.489 15.9061 21.4828L15.8952 21.4734Z" fill="#00D8FF"></path>
<path d="M30.8703 44.4625C28.7531 44.4625 26.0641 43.1812 23.2641 40.7734C19.6808 37.5129 16.6484 33.6944 14.2844 29.4656C11.8324 25.3631 10.0526 20.8946 9.01251 16.2297C8.56141 14.1773 8.4778 12.0612 8.7656 9.97971C8.8322 9.20751 9.0673 8.45931 9.4544 7.78791C9.8416 7.11651 10.3713 6.53821 11.0063 6.09371C13.3297 4.74841 17.2719 6.13121 21.2953 9.70311C24.64 12.8628 27.4803 16.5167 29.7172 20.5375C32.1677 24.5443 33.9661 28.9149 35.0453 33.4859C35.5158 35.6136 35.5884 37.81 35.2594 39.9641C35.1811 40.7584 34.932 41.5265 34.529 42.2156C34.1261 42.9047 33.5789 43.4985 32.925 43.9562C32.2971 44.3042 31.588 44.479 30.8703 44.4625ZM15.9016 28.525C18.1694 32.5663 21.0661 36.2209 24.4828 39.3516C27.9969 42.375 30.7844 43.025 31.9828 42.3203C33.2328 41.5937 34.1547 38.6281 33.2047 33.8297C32.1639 29.4655 30.4389 25.2936 28.0938 21.4687C25.9591 17.6205 23.248 14.1217 20.0547 11.0937C16.2672 7.73121 13.1953 6.97971 11.9438 7.70471C11.5537 8.02171 11.2336 8.41611 11.0036 8.86311C10.7737 9.31011 10.6389 9.79991 10.6078 10.3016C10.3594 12.1579 10.4403 14.0436 10.8469 15.8719C11.8474 20.333 13.5543 24.6056 15.9031 28.5281L15.9016 28.525Z" fill="#00D8FF"></path>
<path fill-rule="evenodd" clip-rule="evenodd" d="M65 20.9167C65 20.3644 64.5523 19.9167 64 19.9167C63.4477 19.9167 63 20.3644 63 20.9167V24H59.9167C59.3645 24 58.9167 24.4477 58.9167 25C58.9167 25.5523 59.3645 26 59.9167 26H63V29.0834C63 29.6357 63.4477 30.0834 64 30.0834C64.5523 30.0834 65 29.6357 65 29.0834V26H68.0834C68.6357 26 69.0834 25.5523 69.0834 25C69.0834 24.4477 68.6357 24 68.0834 24H65V20.9167Z" fill="url('#paint0_linear_107_44')"></path>
<path d="M129.458 11.2916C129.475 11.3581 129.485 11.4267 129.485 11.4957V22.2093C129.485 22.4892 129.335 22.7477 129.092 22.887L120.1 28.0641V38.3257C120.1 38.605 119.952 38.8627 119.71 39.0034L100.939 49.8088C100.896 49.8332 100.849 49.8488 100.802 49.8654C100.785 49.8713 100.768 49.882 100.75 49.8869C100.619 49.9215 100.481 49.9215 100.349 49.8869C100.328 49.8811 100.308 49.8693 100.288 49.8615C100.245 49.8459 100.2 49.8322 100.159 49.8088L81.393 39.0034C81.15 38.864 81 38.6055 81 38.3257V6.1847C81 6.1144 81.01 6.0461 81.027 5.9797C81.033 5.9572 81.047 5.9367 81.055 5.9143C81.069 5.8732 81.083 5.8313 81.104 5.7932C81.119 5.7678 81.141 5.7473 81.158 5.7238C81.181 5.6926 81.201 5.6604 81.228 5.633C81.25 5.6106 81.279 5.594 81.305 5.5744C81.333 5.551 81.358 5.5256 81.391 5.5071L90.775 0.1044C91.017 -0.0348 91.315 -0.0348 91.556 0.1044L100.94 5.5071H100.942C100.973 5.5266 101 5.551 101.028 5.5735C101.053 5.593 101.082 5.6106 101.104 5.6321C101.132 5.6604 101.151 5.6926 101.175 5.7238C101.191 5.7473 101.214 5.7678 101.227 5.7932C101.25 5.8322 101.262 5.8732 101.278 5.9143C101.286 5.9367 101.3 5.9572 101.305 5.9807C101.323 6.0472 101.333 6.1158 101.333 6.1847V26.2597L109.152 21.7572V11.4947C109.152 11.4263 109.162 11.357 109.179 11.2916C109.186 11.2682 109.199 11.2476 109.207 11.2252C109.222 11.1842 109.236 11.1422 109.258 11.1041C109.272 11.0787 109.294 11.0582 109.31 11.0348C109.334 11.0035 109.353 10.9713 109.381 10.944C109.403 10.9215 109.431 10.9049 109.457 10.8854C109.486 10.8619 109.511 10.8366 109.543 10.818H109.544L118.928 5.4153C119.17 5.2759 119.468 5.2759 119.71 5.4153L129.093 10.818C129.126 10.8375 129.152 10.8619 129.181 10.8844C129.206 10.9039 129.234 10.9215 129.256 10.943C129.284 10.9713 129.303 11.0035 129.327 11.0348C129.344 11.0582 129.366 11.0787 129.379 11.1041C129.402 11.1422 129.415 11.1842 129.43 11.2252C129.439 11.2476 129.452 11.2682 129.458 11.2916ZM127.921 21.7572V12.8481L124.637 14.7385L120.1 17.3505V26.2597L127.921 21.7572ZM118.537 37.8736V28.9586L114.074 31.5071L101.332 38.7797V47.7787L118.537 37.8736ZM82.564 7.5371V37.8736L99.767 47.7778V38.7807L90.78 33.6944L90.777 33.6924L90.773 33.6905C90.743 33.6729 90.718 33.6475 90.689 33.626C90.665 33.6065 90.637 33.5909 90.615 33.5694L90.613 33.5665C90.588 33.542 90.57 33.5118 90.549 33.4844C90.529 33.4581 90.506 33.4356 90.49 33.4083L90.489 33.4053C90.472 33.3761 90.461 33.3409 90.448 33.3077C90.435 33.2784 90.419 33.2511 90.411 33.2198C90.401 33.1827 90.399 33.1427 90.395 33.1046C90.392 33.0753 90.384 33.046 90.384 33.0167V33.0148V12.0396L85.848 9.4266L82.564 7.5371ZM91.167 1.6843L83.348 6.1847L91.165 10.6852L98.982 6.1838L91.165 1.6843H91.167ZM95.233 29.771L99.768 27.1599V7.5371L96.485 9.4275L91.948 12.0396V31.6624L95.233 29.771ZM119.319 6.9952L111.501 11.4957L119.319 15.9961L127.136 11.4947L119.319 6.9952ZM118.537 17.3505L114 14.7385L110.716 12.8481V21.7572L115.252 24.3683L118.537 26.2597V17.3505ZM100.549 37.4274L112.015 30.8812L117.747 27.6101L109.935 23.1125L100.941 28.2907L92.744 33.0099L100.549 37.4274Z" fill="#FF2D20"></path>
<defs>
<linearGradient id="paint0_linear_107_44" x1="58.9167" y1="25" x2="69.0834" y2="25" gradientUnits="userSpaceOnUse">
<stop stop-color="#DD0031"></stop>
<stop offset="1" stop-color="#4361EE"></stop>
</linearGradient>
</defs>
</svg>
